<svg xmlns="http://www.w3.org/2000/svg" viewBox="0 0 128 128"><title>icon19.2g</title><g id="love_birds" data-name="love birds"><path d="M45.591,29.536c-2.6-.83-4.7.937-7.613,3.735-.548.527-1.081,1.038-1.6,1.5a3.444,3.444,0,0,1-4.546,0c-.552-.488-1.111-1.032-1.684-1.59-2.327-2.269-4.128-3.847-6.212-3.847a4.49,4.49,0,0,0-1.34.211,5.256,5.256,0,0,0-3.518,3.014,7.576,7.576,0,0,0,.817,6.383C21.506,41.855,28,45.945,33.723,48.7a.867.867,0,0,0,.76,0c5.4-2.606,12.048-6.792,13.865-9.823a7.166,7.166,0,0,0,.744-6.115A5.315,5.315,0,0,0,45.591,29.536Z"/><path d="M61.17,83.11l-3.85-3.84v-.01L46.77,68.71c-7.26-7.21-19.06-7.57-26.32-.78a18.687,18.687,0,0,0-.46,26.89A26.226,26.226,0,0,0,24.42,98a2.886,2.886,0,0,1-.11,5l-10.92,5.99c5.49,2.71,17.51,8.06,27.43,8.38,10.13.33,15.32-2.77,20.4-7.86A18.713,18.713,0,0,0,61.17,83.11Z"/><path d="M58.23,66.47a1,1,0,0,0-1.31-1.3l-5.7,2.33,4.68,4.68Z"/><path d="M108.82,13.56l-5.98,10.92a2.895,2.895,0,0,1-5.01.11,26.226,26.226,0,0,0-3.18-4.43,18.523,18.523,0,0,0-13.21-5.48s-9.43.463-13.68,5.94c-6.09,7.848-6.43,19.05.78,26.32l14.4,14.4a18.7,18.7,0,0,0,26.4.04c5.09-5.07,8.18-10.26,7.86-20.39C116.88,31.07,111.53,19.05,108.82,13.56Z"/><path d="M65,57.09a1,1,0,0,0,1.3,1.31l5.71-2.33-4.68-4.68Z"/></g></svg>