<svg xmlns="http://www.w3.org/2000/svg" viewBox="0 0 24 24"><defs><style>.a{fill:#590d16;}</style></defs><path class="a" d="M22.813,7.338a6.736,6.736,0,0,0-3.8-4.49c-2.485-1.141-5.1-.039-7.016,1.9-1.012-1.025-3.812-3.374-7.016-1.9a6.736,6.736,0,0,0-3.8,4.49,5.818,5.818,0,0,0,1,4.98c1.708,2.215,9.156,8.891,9.472,9.174a.514.514,0,0,0,.688,0c1.727-1.548,4.023-3.659,5.808-5.372.525-.5,1.036-1,1.508-1.474a28.4,28.4,0,0,0,2.156-2.328A5.815,5.815,0,0,0,22.813,7.338ZM3,11.689a4.8,4.8,0,0,1-.812-4.1,5.711,5.711,0,0,1,3.226-3.8c2.108-.967,4.335.136,5.922,1.77L8.317,9.771a.515.515,0,0,0,.143.735l5.4,3.43L10.094,18.68A92.313,92.313,0,0,1,3,11.689Zm18,0a64.909,64.909,0,0,1-5.179,5.217c-1.632,1.527-3.16,2.912-3.821,3.509-.478-.431-.977-.886-1.144-1.038l4.167-5.249a.516.516,0,0,0-.127-.756L9.472,9.928c2.378-3.321,2.911-4.073,2.965-4.134.357-.409,3.121-3.4,6.149-2.01a5.714,5.714,0,0,1,3.226,3.8A4.8,4.8,0,0,1,21,11.689Z"/><path class="a" d="M6.346,5A4.39,4.39,0,0,0,3.873,7.928,3.818,3.818,0,0,0,4.529,11.2a.515.515,0,0,0,.816-.629,2.8,2.8,0,0,1-.472-2.392,3.366,3.366,0,0,1,1.9-2.237A.515.515,0,0,0,6.346,5Z"/></svg>