<svg xmlns="http://www.w3.org/2000/svg" viewBox="0 0 128 128"><title>icon19.2</title><g id="love_birds" data-name="love birds"><path d="M64,80.28l-5.04-5.04,2.97-7.25a5,5,0,0,0-6.52-6.52l-7.37,3c-8.83-7.33-22.01-7.23-30.32.54a22.685,22.685,0,0,0-.56,32.64,23.47,23.47,0,0,0,3.58,2.75L9.63,106.49a2.9,2.9,0,0,0,.05,5.11c5.4,2.81,19.22,9.39,31.01,9.77.53.01,1.04.02,1.54.02,10.56,0,16.4-3.63,21.82-9.06A22.718,22.718,0,0,0,64,80.28ZM56.92,65.17a1,1,0,0,1,1.31,1.3L55.9,72.18,51.22,67.5Zm4.3,44.34c-5.08,5.09-10.27,8.19-20.4,7.86-9.92-.32-21.94-5.67-27.43-8.38L24.31,103a2.886,2.886,0,0,0,.11-5,26.226,26.226,0,0,1-4.43-3.18,18.687,18.687,0,0,1,.46-26.89c7.26-6.79,19.06-6.43,26.32.78L57.32,79.26v.01l3.85,3.84A18.713,18.713,0,0,1,61.22,109.51Z"/><path d="M121.2,40.86c-.38-11.79-6.96-25.61-9.77-31.01a2.9,2.9,0,0,0-5.11-.05l-6.09,11.11a22.849,22.849,0,0,0-2.75-3.58,22.685,22.685,0,0,0-32.64.56c-7.77,8.31-7.87,21.48-.54,30.32l-3,7.37a5.006,5.006,0,0,0,4.6,6.9,5.016,5.016,0,0,0,1.92-.38l7.25-2.97,5.04,5.04a22.718,22.718,0,0,0,32.05.05C117.85,58.54,121.57,52.4,121.2,40.86ZM66.3,58.4A1,1,0,0,1,65,57.09l2.33-5.7,4.68,4.68Zm43.04,2.98a18.7,18.7,0,0,1-26.4-.04l-14.4-14.4c-7.21-7.27-7.56-19.06-.78-26.32a18.61,18.61,0,0,1,13.36-5.94h.32a18.523,18.523,0,0,1,13.21,5.48,26.226,26.226,0,0,1,3.18,4.43,2.895,2.895,0,0,0,5.01-.11l5.98-10.92c2.71,5.49,8.06,17.51,8.38,27.43C117.52,51.12,114.43,56.31,109.34,61.38Z"/><path d="M34.1,52.794a4.871,4.871,0,0,1-2.117-.486c-2.966-1.431-12.854-6.482-15.593-11.43a11.518,11.518,0,0,1-1.028-9.814,9.243,9.243,0,0,1,6.045-5.341c5.173-1.6,8.847,1.978,11.528,4.591.395.386.782.764,1.166,1.118.36-.331.727-.685,1.1-1.045,2.763-2.654,6.544-6.294,11.611-4.658a9.307,9.307,0,0,1,6.019,5.629,11.188,11.188,0,0,1-1.058,9.58h0c-3.1,5.176-13.5,10.378-15.558,11.37A4.874,4.874,0,0,1,34.1,52.794ZM23.934,29.332a4.49,4.49,0,0,0-1.34.211,5.256,5.256,0,0,0-3.518,3.014,7.576,7.576,0,0,0,.817,6.383C21.506,41.855,28,45.945,33.723,48.7a.867.867,0,0,0,.76,0c5.4-2.606,12.048-6.792,13.865-9.823h0a7.166,7.166,0,0,0,.744-6.115,5.315,5.315,0,0,0-3.5-3.23c-2.6-.83-4.7.937-7.613,3.735-.548.527-1.081,1.038-1.6,1.5a3.444,3.444,0,0,1-4.546,0c-.552-.488-1.111-1.032-1.684-1.59C27.819,30.91,26.018,29.332,23.934,29.332Z"/></g></svg>