<svg id="_50" data-name="50" xmlns="http://www.w3.org/2000/svg" viewBox="0 0 512 512"><defs><style>.cls-1{fill:#15be79;}.cls-2{fill:#33db92;}.cls-3{fill:#e52e44;}.cls-4{fill:#fa4654;}.cls-5{fill:#efb732;}.cls-6{fill:#fbdb58;}.cls-7{fill:#f9eaa5;}.cls-8{fill:#fb8406;}.cls-9{fill:#f39e22;}.cls-10{fill:#ffac52;}</style></defs><title>50-heart-icons</title><circle class="cls-1" cx="256" cy="256" r="256"/><circle class="cls-2" cx="256" cy="256" r="200.51"/><path class="cls-3" d="M287.91,280.59,184.3,384.2a19.37,19.37,0,0,1-27.43,0l-86-86L53.26,280.59a70.5,70.5,0,0,1,0-99.7A71.66,71.66,0,0,1,64.07,172,70.54,70.54,0,0,1,153,180.89l17.63,17.63,17.62-17.63a70.5,70.5,0,0,1,99.7,99.7Z"/><path class="cls-4" d="M287.91,280.59,204,364.53a19.39,19.39,0,0,1-27.43,0l-86-86L72.94,260.92A70.55,70.55,0,0,1,64.07,172,70.54,70.54,0,0,1,153,180.89l17.63,17.63,17.62-17.63a70.5,70.5,0,0,1,99.7,99.7Z"/><path class="cls-5" d="M458.74,280.59,355.13,384.2a19.37,19.37,0,0,1-27.43,0l-86-86-17.62-17.64a70.5,70.5,0,0,1,0-99.7,70.41,70.41,0,0,1,99.7,0l17.62,17.63L359,180.89a70.5,70.5,0,0,1,99.7,99.7Z"/><path class="cls-6" d="M458.74,280.59,374.8,364.53a19.39,19.39,0,0,1-27.43,0l-86-86-17.63-17.63A70.52,70.52,0,0,1,234.9,172a70.54,70.54,0,0,1,88.89,8.87l17.62,17.63L359,180.89a70.5,70.5,0,0,1,99.7,99.7Z"/><ellipse class="cls-7" cx="431.17" cy="193.42" rx="17.89" ry="29.57" transform="translate(19 424.57) rotate(-53.45)"/><ellipse class="cls-7" cx="459.31" cy="236.6" rx="11.3" ry="18.68" transform="translate(-29.77 70.02) rotate(-8.45)"/><path class="cls-8" d="M287.91,180.89A70.09,70.09,0,0,0,256,162.57,70.1,70.1,0,0,0,234.9,172a71.17,71.17,0,0,0-10.81,8.87,70.5,70.5,0,0,0,0,99.7l17.62,17.64L256,312.51l31.91-31.92A70.48,70.48,0,0,0,287.91,180.89Z"/><path class="cls-9" d="M287.91,180.89A70.09,70.09,0,0,0,256,162.57a70.79,70.79,0,0,0-13.41,5A73.16,73.16,0,0,0,234.9,172a70.51,70.51,0,0,0,8.86,88.9c7.88,7.78,24.1,24.18,31.91,31.92l12.24-12.25A70.48,70.48,0,0,0,287.91,180.89Z"/><ellipse class="cls-10" cx="288.49" cy="236.6" rx="11.3" ry="18.68" transform="translate(-31.62 44.93) rotate(-8.45)"/><ellipse class="cls-10" cx="260.34" cy="193.42" rx="17.89" ry="29.57" transform="translate(-50.08 287.35) rotate(-53.45)"/></svg>