<svg xmlns="http://www.w3.org/2000/svg" viewBox="0 0 24 24"><path d="M10.912,21.964H6.732v-3.52c.6-.234,1.513-1.139,2.505-4.61A80.34,80.34,0,0,0,11.425,1.577a.516.516,0,0,0-.513-.571H1.521a.516.516,0,0,0-.513.571A84.725,84.725,0,0,0,3,13.12C4.062,17.194,5.054,18.2,5.7,18.445v3.519H1.521a.515.515,0,1,0,0,1.03h9.391a.515.515,0,1,0,0-1.03ZM2.1,2.036h8.239c-.078.682-.165,1.365-.257,2.046a4.56,4.56,0,0,1-5.142-.407,3.129,3.129,0,0,0-2.7-.468C2.19,2.817,2.141,2.426,2.1,2.036Zm4.312,15.4a.5.5,0,0,1-.193.063.512.512,0,0,1-.2-.064c-.47-.256-1.169-1.428-1.936-4.254-.027-.1-.054-.2-.081-.306-.054-.206-.108-.424-.163-.646-.04-.166-.081-.332-.121-.5q-.088-.38-.177-.791c-.024-.106-.047-.211-.07-.318C3.11,8.9,2.742,6.8,2.385,4.233a2.172,2.172,0,0,1,1.962.288,5.732,5.732,0,0,0,5.541.826C8.585,14.119,7.179,17.016,6.409,17.434Z"/><path d="M22.479,21.964H18.3V18.443c.556-.219,1.372-1.016,2.276-3.87a75.339,75.339,0,0,0,2.417-13,.516.516,0,0,0-.513-.571H13.088a.516.516,0,0,0-.513.571,81.465,81.465,0,0,0,2.13,12.06c1.015,3.674,1.938,4.588,2.563,4.815v3.512h-4.18a.515.515,0,1,0,0,1.03h9.391a.515.515,0,0,0,0-1.03ZM13.664,2.036H21.9c-.1.874-.213,1.752-.336,2.623a7.461,7.461,0,0,1-2.887-.442,5.55,5.55,0,0,0-4.672.5C13.882,3.829,13.766,2.93,13.664,2.036Zm4.309,15.4a.528.528,0,0,1-.189.061.489.489,0,0,1-.187-.061c-.741-.4-2.117-3.172-3.413-11.618a4.717,4.717,0,0,1,4.134-.636,8.435,8.435,0,0,0,3.082.523C20.1,14.225,18.722,17.028,17.973,17.436Z"/></svg>