<svg xmlns="http://www.w3.org/2000/svg" viewBox="0 0 24 24"><path d="M20.954,8.221h-.709V2.6c1.445-.293,2.309-.558,2.388-.583a.516.516,0,0,0-.308-.984A38.529,38.529,0,0,1,12,2.38,38.529,38.529,0,0,1,1.675,1.029a.516.516,0,0,0-.308.984c.079.025.943.29,2.387.583V8.221H3.046a2.042,2.042,0,0,0-2.04,2.04V20.955A2.043,2.043,0,0,0,3.046,23H20.954a2.043,2.043,0,0,0,2.04-2.04V10.261A2.042,2.042,0,0,0,20.954,8.221ZM4.785,2.788A42.179,42.179,0,0,0,12,3.411a42.166,42.166,0,0,0,7.214-.623V8.221H4.785ZM21.964,20.955a1.011,1.011,0,0,1-1.01,1.009H3.046a1.011,1.011,0,0,1-1.01-1.009V10.261a1.011,1.011,0,0,1,1.01-1.009H20.954a1.011,1.011,0,0,1,1.01,1.009Z"/><path d="M11.567,11.579a2.77,2.77,0,0,0-3,.64,2.769,2.769,0,0,0-3-.64,3.063,3.063,0,0,0-1.725,2.043,2.69,2.69,0,0,0,.463,2.3c.718.931,3.79,3.685,3.921,3.8a.513.513,0,0,0,.687,0c.131-.116,3.2-2.87,3.92-3.8a2.686,2.686,0,0,0,.463-2.3A3.059,3.059,0,0,0,11.567,11.579Zm.445,3.714a47.007,47.007,0,0,1-3.448,3.353,47.21,47.21,0,0,1-3.448-3.353,1.664,1.664,0,0,1-.278-1.424,2.037,2.037,0,0,1,1.154-1.353,1.307,1.307,0,0,1,.557-.124,2.463,2.463,0,0,1,1.617.883.534.534,0,0,0,.8,0c.011-.013,1.06-1.268,2.175-.759a2.04,2.04,0,0,1,1.154,1.353A1.665,1.665,0,0,1,12.012,15.293Z"/><path d="M17.858,13.007a.515.515,0,0,0-.729.729l1.357,1.356H14.834a.516.516,0,0,0,0,1.031h3.652L17.129,17.48a.515.515,0,0,0,.729.729c2.324-2.345,2.274-2.227,2.348-2.4a.517.517,0,0,0,0-.394C20.133,15.235,20.156,15.324,17.858,13.007Z"/></svg>