<?xml version="1.0" encoding="utf-8"?>
<!-- Generator: Adobe Illustrator 24.3.0, SVG Export Plug-In . SVG Version: 6.00 Build 0)  -->
<svg version="1.1" id="Layer_1" xmlns="http://www.w3.org/2000/svg" xmlns:xlink="http://www.w3.org/1999/xlink" x="0px" y="0px"
	 viewBox="0 0 300 300" enable-background="new 0 0 300 300" xml:space="preserve">
<g>
	<g>
		<g>
			<path fill="#FE6F80" d="M97.457,28.761L47.946,77.892h17.008v127.141h27.104v5.399v10.179v1.039c0,2.984,2.415,5.402,5.399,5.402
				c2.984,0,5.399-2.418,5.399-5.402v-1.039v-10.179v-5.399h27.104V77.892h17.008L97.457,28.761z"/>
		</g>
		<g>
			<rect x="64.954" y="77.892" fill="#FFA1AA" width="13.287" height="127.141"/>
		</g>
		<g>
			<polygon fill="#FFA1AA" points="97.457,28.761 47.946,77.892 63.113,77.892 105.041,36.285 			"/>
		</g>
		<g>
			<path fill="#FFA1AA" d="M97.457,221.65v-1.039v-10.179v-5.399h-5.399v5.399v10.179v1.039c0,2.984,2.415,5.402,5.399,5.402
				c0.989,0,1.903-0.284,2.699-0.749C98.55,225.368,97.457,223.645,97.457,221.65z"/>
		</g>
		<g>
			<polygon fill="#F4F4F4" points="129.96,133.048 64.954,185.646 64.954,205.033 68.036,205.033 129.96,154.927 			"/>
		</g>
		<g>
			<polygon fill="#F9F9F9" points="78.241,174.895 64.954,185.646 64.954,205.033 68.036,205.033 78.241,196.775 			"/>
		</g>
		<g>
			<polygon fill="#F4F4F4" points="64.954,149.872 129.96,97.274 129.96,77.892 126.876,77.892 64.954,127.995 			"/>
		</g>
		<g>
			<polygon fill="#F9F9F9" points="78.241,117.245 64.954,127.995 64.954,149.872 78.241,139.122 			"/>
		</g>
		<g>
			<g>
				<path fill="#FFDA88" d="M97.457,259.715c-2.51,0-4.546-2.036-4.546-4.546v-9.936c0-2.51,2.036-4.546,4.546-4.546
					c2.51,0,4.546,2.036,4.546,4.546v9.936C102.004,257.678,99.967,259.715,97.457,259.715z"/>
			</g>
		</g>
		<g>
			<g>
				<path fill="#FFDA88" d="M117.525,247.088c-1.163,0-2.327-0.444-3.215-1.332l-7.021-7.024c-1.776-1.776-1.776-4.656,0-6.429
					c1.776-1.776,4.653-1.776,6.429,0l7.021,7.024c1.776,1.776,1.776,4.656,0,6.429
					C119.852,246.644,118.689,247.088,117.525,247.088z"/>
			</g>
		</g>
		<g>
			<g>
				<path fill="#FFDA88" d="M77.389,247.088c-1.163,0-2.327-0.444-3.214-1.332c-1.776-1.773-1.776-4.653,0-6.429l7.021-7.024
					c1.776-1.776,4.653-1.776,6.429,0c1.776,1.773,1.776,4.653,0,6.429l-7.021,7.024C79.715,246.644,78.552,247.088,77.389,247.088z
					"/>
			</g>
		</g>
		<g>
			<path fill="#FE6F80" d="M223.964,106.323c-3.667-1.341-7.72,0.545-9.063,4.209l-9.045,24.763
				c-0.758,2.075-0.459,4.259,0.592,6.015l-30.055,82.25c-0.841,2.306,0.343,4.86,2.649,5.701c2.306,0.844,4.854-0.343,5.698-2.649
				l30.055-82.25c1.933-0.666,3.573-2.143,4.333-4.221l9.046-24.757C229.514,111.716,227.629,107.66,223.964,106.323z"/>
		</g>
		<g>
			<path fill="#FFA1AA" d="M181.951,224.613l30.055-82.25c-1.051-1.755-1.35-3.94-0.592-6.015l9.045-24.763
				c0.852-2.326,2.8-3.925,5.044-4.449c-0.474-0.323-0.977-0.609-1.539-0.814c-3.667-1.341-7.72,0.545-9.063,4.209l-9.045,24.763
				c-0.758,2.075-0.459,4.259,0.592,6.015l-30.055,82.25c-0.841,2.306,0.343,4.86,2.649,5.701c1.261,0.462,2.584,0.299,3.67-0.302
				C181.744,227.78,181.392,226.146,181.951,224.613z"/>
		</g>
		<g>
			<g>
				<path fill="#FFDA88" d="M228.469,98.541c-0.518,0-1.045-0.089-1.56-0.275c-2.359-0.861-3.573-3.472-2.712-5.831l3.016-8.258
					c0.865-2.359,3.472-3.564,5.831-2.712c2.359,0.861,3.573,3.472,2.711,5.831l-3.016,8.258
					C232.066,97.399,230.325,98.541,228.469,98.541z"/>
			</g>
		</g>
		<g>
			<g>
				<path fill="#FFDA88" d="M208.369,101.895c-1.714,0-3.357-0.974-4.126-2.631l-11.949-25.716
					c-1.057-2.276-0.071-4.979,2.208-6.038c2.264-1.054,4.979-0.071,6.038,2.208l11.949,25.716c1.057,2.276,0.071,4.979-2.208,6.038
					C209.662,101.758,209.011,101.895,208.369,101.895z"/>
			</g>
		</g>
		<g>
			<g>
				<path fill="#FFDA88" d="M241.153,113.873c-1.714,0-3.357-0.974-4.126-2.632c-1.057-2.276-0.071-4.978,2.208-6.038l25.719-11.952
					c2.267-1.054,4.979-0.071,6.038,2.208c1.057,2.276,0.071,4.979-2.208,6.038l-25.719,11.952
					C242.446,113.737,241.795,113.873,241.153,113.873z"/>
			</g>
		</g>
		<g>
			<g>
				<path fill="#FFDA88" d="M250.63,135.812c-0.518,0-1.045-0.089-1.56-0.275l-11.656-4.259c-2.359-0.861-3.573-3.472-2.711-5.831
					c0.864-2.356,3.472-3.564,5.831-2.712l11.656,4.259c2.359,0.861,3.573,3.472,2.711,5.831
					C254.227,134.67,252.486,135.812,250.63,135.812z"/>
			</g>
		</g>
		<g>
			<g>
				<path fill="#FFDA88" d="M199.151,117.002c-0.518,0-1.045-0.089-1.56-0.275l-11.659-4.259c-2.359-0.861-3.573-3.472-2.711-5.831
					c0.864-2.359,3.475-3.561,5.831-2.711l11.659,4.259c2.359,0.861,3.573,3.472,2.711,5.831
					C202.748,115.86,201.007,117.002,199.151,117.002z"/>
			</g>
		</g>
		<g>
			<g>
				<path fill="#FFDA88" d="M177.064,141.753c-1.714,0-3.357-0.973-4.126-2.631c-1.057-2.276-0.071-4.979,2.208-6.038l20.166-9.371
					c2.267-1.054,4.978-0.071,6.038,2.208c1.057,2.276,0.071,4.979-2.208,6.038l-20.166,9.371
					C178.358,141.617,177.707,141.753,177.064,141.753z"/>
			</g>
		</g>
		<g>
			<g>
				<path fill="#FFDA88" d="M239.386,164.527c-1.714,0-3.357-0.974-4.126-2.631l-9.371-20.163c-1.057-2.276-0.071-4.979,2.208-6.038
					c2.267-1.053,4.978-0.071,6.038,2.208l9.371,20.163c1.057,2.276,0.071,4.979-2.208,6.038
					C240.679,164.39,240.028,164.527,239.386,164.527z"/>
			</g>
		</g>
		<g>
			<g>
				<path fill="#FFDA88" d="M236.1,77.656c-0.518,0-1.045-0.089-1.56-0.275c-2.359-0.861-3.573-3.472-2.711-5.831l1.746-4.78
					c0.864-2.359,3.472-3.561,5.831-2.711c2.359,0.861,3.573,3.472,2.711,5.831l-1.746,4.78
					C239.696,76.513,237.956,77.656,236.1,77.656z"/>
			</g>
		</g>
		<g>
			<path fill="#9AE8CE" d="M221.534,76.309c-0.719,1.962-2.889,2.968-4.851,2.252c-1.962-0.719-2.971-2.886-2.252-4.851
				c0.716-1.962,2.886-2.971,4.848-2.252C221.241,72.174,222.248,74.344,221.534,76.309z"/>
		</g>
		<g>
			<path fill="#9AE8CE" d="M252.273,87.542c-0.713,1.963-2.883,2.972-4.845,2.253c-1.962-0.716-2.972-2.886-2.255-4.848
				c0.719-1.966,2.886-2.969,4.851-2.256C251.986,83.41,252.992,85.579,252.273,87.542z"/>
		</g>
		<g>
			<path fill="#9AE8CE" d="M269.414,138.133c-0.719,1.962-2.889,2.969-4.851,2.249c-1.962-0.714-2.969-2.883-2.255-4.845
				c0.719-1.965,2.889-2.975,4.851-2.256C269.121,134.001,270.13,136.165,269.414,138.133z"/>
		</g>
		<g>
			<path fill="#9AE8CE" d="M225.376,162.289c-0.719,1.966-2.886,2.972-4.851,2.256c-1.962-0.719-2.969-2.889-2.252-4.851
				c0.716-1.962,2.886-2.969,4.848-2.25C225.083,158.157,226.093,160.327,225.376,162.289z"/>
		</g>
		<g>
			<path fill="#9AE8CE" d="M194.267,150.923c-0.719,1.963-2.883,2.972-4.851,2.256c-1.962-0.719-2.969-2.889-2.249-4.851
				c0.713-1.963,2.883-2.969,4.848-2.253C193.977,146.791,194.987,148.96,194.267,150.923z"/>
		</g>
		<g>
			<path fill="#FFFFFF" d="M150.517,230.829c-0.716,1.963-2.883,2.972-4.848,2.256c-1.966-0.719-2.972-2.889-2.25-4.851
				c0.71-1.962,2.883-2.969,4.848-2.253C150.227,226.697,151.239,228.867,150.517,230.829z"/>
		</g>
		<g>
			<path fill="#FFFFFF" d="M205.945,256.465c-0.722,1.963-2.883,2.972-4.854,2.256c-1.96-0.719-2.966-2.889-2.249-4.851
				c0.716-1.963,2.883-2.969,4.848-2.253C205.654,252.333,206.661,254.503,205.945,256.465z"/>
		</g>
		<g>
			<path fill="#FFFFFF" d="M137.295,260.248c-0.722,1.962-2.883,2.971-4.854,2.255c-1.96-0.719-2.966-2.889-2.25-4.851
				c0.716-1.962,2.883-2.969,4.848-2.252C137.005,256.116,138.011,258.285,137.295,260.248z"/>
		</g>
		<g>
			<path fill="#9AE8CE" d="M177.263,104.458c-0.719,1.962-2.886,2.972-4.851,2.255c-1.963-0.719-2.969-2.889-2.253-4.851
				c0.717-1.962,2.886-2.969,4.848-2.252C176.973,100.326,177.982,102.495,177.263,104.458z"/>
		</g>
		<g>
			<g>
				<path fill="#FFDA88" d="M212.909,66.029c-1.755,0-3.427-1.021-4.171-2.732l-3.721-8.551c-1.003-2.303,0.05-4.982,2.353-5.982
					c2.314-1.007,4.984,0.053,5.982,2.353l3.72,8.551c1.004,2.303-0.05,4.982-2.353,5.982
					C214.129,65.908,213.513,66.029,212.909,66.029z"/>
			</g>
		</g>
		<g>
			<g>
				<path fill="#FFDA88" d="M261.39,83.747c-1.672,0-3.283-0.926-4.076-2.528c-1.116-2.25-0.195-4.979,2.054-6.092l8.359-4.141
					c2.247-1.119,4.976-0.196,6.091,2.054c1.116,2.25,0.196,4.979-2.054,6.092l-8.359,4.141
					C262.757,83.596,262.068,83.747,261.39,83.747z"/>
			</g>
		</g>
		<g>
			<path fill="#9AE8CE" d="M187.498,52.425c0-3.81-3.084-6.897-6.891-6.897c-3.703,0-6.71,2.916-6.885,6.574l-0.021-0.009h-0.009
				c-0.172-3.65-3.182-6.565-6.879-6.565c-3.806,0-6.891,3.087-6.891,6.897c0,1.69,0.609,3.244,1.622,4.446l0,0l12.165,12.017
				l12.162-12.017v-0.006C186.889,55.669,187.498,54.115,187.498,52.425z"/>
		</g>
		<g>
			<path fill="#AEF4DB" d="M168.546,56.868c-1.012-1.202-1.622-2.756-1.622-4.446c0-2.528,1.371-4.712,3.395-5.914
				c-1.027-0.612-2.22-0.983-3.505-0.983c-3.806,0-6.891,3.087-6.891,6.897c0,1.69,0.609,3.244,1.622,4.446l12.165,12.017
				l3.499-3.457L168.546,56.868z"/>
		</g>
		<g>
			<path fill="#FE6F80" d="M183.715,254.775c0-3.809-3.084-6.897-6.891-6.897c-3.703,0-6.71,2.915-6.885,6.574l-0.021-0.009h-0.009
				c-0.171-3.65-3.182-6.565-6.879-6.565c-3.807,0-6.891,3.087-6.891,6.897c0,1.69,0.61,3.244,1.622,4.446l0,0l12.165,12.017
				l12.162-12.017v-0.006C183.106,258.019,183.715,256.465,183.715,254.775z"/>
		</g>
		<g>
			<path fill="#9AE8CE" d="M55.37,220.833c-1.806-3.354-5.985-4.612-9.336-2.806c-3.262,1.755-4.526,5.748-2.945,9.051l-0.024,0.003
				l-0.009,0.003c-1.88-3.132-5.911-4.271-9.167-2.519c-3.353,1.802-4.605,5.982-2.8,9.339c0.799,1.489,2.075,2.566,3.534,3.146l0,0
				l16.41,4.813l5.014-16.344l-0.006-0.006C56.37,223.98,56.172,222.322,55.37,220.833z"/>
		</g>
		<g>
			<path fill="#AEF4DB" d="M39.342,233.83c-1.459-0.58-2.735-1.658-3.534-3.146c-1.196-2.226-1.027-4.798,0.186-6.814
				c-0.716,0.122-1.43,0.332-2.105,0.696c-3.353,1.802-4.605,5.982-2.8,9.339c0.799,1.489,2.075,2.566,3.534,3.146l16.41,4.813
				l1.296-4.224L39.342,233.83z"/>
		</g>
		<g>
			<path fill="#FE6F80" d="M245.527,181.798c-1.808-3.351-5.991-4.603-9.338-2.791c-3.259,1.758-4.52,5.754-2.933,9.054
				l-0.024,0.003l-0.009,0.003c-1.886-3.129-5.92-4.262-9.17-2.507c-3.351,1.811-4.597,5.994-2.785,9.344
				c0.802,1.486,2.078,2.563,3.54,3.14l0,0l16.413,4.792l4.99-16.354l-0.003-0.006C246.534,184.941,246.333,183.287,245.527,181.798
				z"/>
		</g>
		<g>
			<path fill="#FFA1AA" d="M231.205,194.256c-1.463-0.577-2.738-1.655-3.54-3.14c-1.11-2.054-1.063-4.413-0.095-6.355
				c-1.187-0.044-2.397,0.195-3.516,0.799c-3.351,1.811-4.597,5.994-2.785,9.344c0.802,1.486,2.078,2.563,3.54,3.14l16.413,4.792
				l1.584-5.195L231.205,194.256z"/>
		</g>
		<g>
			<path fill="#FE6F80" d="M262.976,46.556c1.696-3.41,0.305-7.548-3.102-9.244c-3.315-1.649-7.305-0.376-9.093,2.824l-0.015-0.021
				h-0.006c1.474-3.345,0.074-7.299-3.235-8.945c-3.407-1.693-7.548-0.305-9.244,3.111c-0.749,1.51-0.897,3.173-0.527,4.7l0,0
				l5.544,16.179l16.241-5.348l0.003-0.003C260.984,49.187,262.222,48.071,262.976,46.556z"/>
		</g>
		<g>
			<path fill="#FFA1AA" d="M243.245,41.705c-0.37-1.527-0.222-3.191,0.527-4.7c1.231-2.477,3.75-3.869,6.34-3.81
				c-0.621-0.823-1.415-1.533-2.401-2.024c-3.407-1.693-7.548-0.305-9.244,3.111c-0.749,1.51-0.897,3.173-0.527,4.7l5.544,16.179
				l3.928-1.293L243.245,41.705z"/>
		</g>
		<g>
			<path fill="#FFA1AA" d="M164.763,259.221c-1.012-1.202-1.622-2.756-1.622-4.446c0-2.528,1.37-4.712,3.395-5.914
				c-1.027-0.613-2.22-0.983-3.504-0.983c-3.807,0-6.891,3.087-6.891,6.897c0,1.69,0.61,3.244,1.622,4.446l12.165,12.017
				l3.499-3.457L164.763,259.221z"/>
		</g>
	</g>
	<g>
		<g>
			<path fill="#161616" d="M129.954,209.58H64.948c-2.512,0-4.547-2.036-4.547-4.547V77.893c0-2.51,2.035-4.547,4.547-4.547h65.006
				c2.512,0,4.546,2.036,4.546,4.547v100.282c0,2.51-2.035,4.546-4.546,4.546c-2.511,0-4.547-2.036-4.547-4.546V82.439H69.495
				v118.048h55.913v-2.167c0-2.51,2.035-4.546,4.547-4.546c2.512,0,4.546,2.036,4.546,4.546v6.713
				C134.501,207.543,132.466,209.58,129.954,209.58z"/>
		</g>
		<g>
			<path fill="#161616" d="M146.962,82.439H47.941c-1.843,0-3.502-1.113-4.203-2.815c-0.703-1.702-0.306-3.661,1-4.958
				l18.998-18.852c1.782-1.773,4.662-1.761,6.43,0.024c1.769,1.782,1.757,4.662-0.025,6.429L58.977,73.346h76.949l-38.475-38.18
				l-13.01,12.911c-1.783,1.773-4.663,1.761-6.429-0.024c-1.77-1.782-1.758-4.662,0.024-6.429l16.213-16.09
				c1.773-1.758,4.632-1.758,6.405,0l49.511,49.132c1.307,1.297,1.703,3.256,1,4.958C150.464,81.326,148.805,82.439,146.962,82.439z
				"/>
		</g>
		<g>
			<path fill="#161616" d="M92.051,205.033v5.399v10.179v1.039c0,2.984,2.418,5.402,5.4,5.402c2.982,0,5.4-2.418,5.4-5.402v-1.039
				v-10.179v-5.399H92.051z"/>
		</g>
		<g>
			<path fill="#161616" d="M68.03,209.58h-3.081c-2.512,0-4.547-2.036-4.547-4.547v-19.387c0-1.373,0.62-2.67,1.687-3.534
				l65.006-52.598c1.363-1.104,3.238-1.323,4.817-0.568c1.582,0.755,2.588,2.35,2.588,4.102v21.88c0,1.373-0.62,2.67-1.687,3.534
				l-61.925,50.106C70.081,209.221,69.07,209.58,68.03,209.58z M69.495,187.815V198l55.913-45.242v-10.182L69.495,187.815z"/>
		</g>
		<g>
			<path fill="#161616" d="M64.948,154.418c-0.666,0-1.335-0.145-1.958-0.444c-1.582-0.755-2.589-2.35-2.589-4.102v-21.877
				c0-1.373,0.62-2.67,1.687-3.534l61.922-50.103c0.808-0.654,1.819-1.012,2.859-1.012h3.084c2.512,0,4.546,2.036,4.546,4.547
				v19.382c0,1.373-0.62,2.67-1.687,3.534l-65.006,52.598C66.983,154.075,65.97,154.418,64.948,154.418z M69.495,130.165v10.179
				l55.913-45.24V84.925L69.495,130.165z"/>
		</g>
		<g>
			<path fill="#161616" d="M97.451,259.715c-2.511,0-4.546-2.036-4.546-4.546v-9.936c0-2.51,2.035-4.547,4.546-4.547
				s4.547,2.036,4.547,4.547v9.936C101.998,257.678,99.963,259.715,97.451,259.715z"/>
		</g>
		<g>
			<path fill="#161616" d="M117.521,247.088c-1.163,0-2.326-0.444-3.215-1.332l-7.024-7.024c-1.776-1.776-1.776-4.653,0-6.429
				c1.776-1.776,4.653-1.776,6.429,0l7.024,7.024c1.776,1.776,1.776,4.653,0,6.429C119.848,246.644,118.684,247.088,117.521,247.088
				z"/>
		</g>
		<g>
			<path fill="#161616" d="M77.382,247.088c-1.163,0-2.326-0.444-3.215-1.332c-1.776-1.776-1.776-4.653,0-6.429l7.024-7.024
				c1.776-1.776,4.653-1.776,6.429,0c1.776,1.776,1.776,4.653,0,6.429l-7.024,7.024C79.708,246.644,78.545,247.088,77.382,247.088z"
				/>
		</g>
		<g>
			<path fill="#161616" d="M223.958,106.323c-3.667-1.341-7.719,0.545-9.063,4.209l-9.046,24.763
				c-0.758,2.075-0.459,4.259,0.592,6.015l-30.055,82.25c-0.84,2.306,0.343,4.86,2.649,5.701c2.306,0.844,4.854-0.343,5.698-2.649
				l30.055-82.25c1.933-0.666,3.573-2.143,4.333-4.221l9.046-24.757C229.508,111.716,227.623,107.66,223.958,106.323z"/>
		</g>
		<g>
			<path fill="#161616" d="M228.464,98.541c-0.518,0-1.045-0.089-1.56-0.275c-2.359-0.861-3.573-3.472-2.711-5.831l3.016-8.258
				c0.861-2.359,3.469-3.567,5.831-2.711c2.359,0.861,3.573,3.472,2.711,5.831l-3.016,8.258
				C232.06,97.398,230.319,98.541,228.464,98.541z"/>
		</g>
		<g>
			<path fill="#161616" d="M208.363,101.895c-1.714,0-3.357-0.974-4.126-2.631l-11.949-25.716c-1.057-2.276-0.071-4.979,2.208-6.038
				c2.267-1.051,4.979-0.071,6.038,2.208l11.949,25.716c1.057,2.276,0.071,4.979-2.208,6.038
				C209.656,101.758,209.005,101.895,208.363,101.895z"/>
		</g>
		<g>
			<path fill="#161616" d="M241.147,113.873c-1.714,0-3.357-0.974-4.126-2.631c-1.057-2.276-0.071-4.979,2.208-6.038l25.719-11.952
				c2.27-1.051,4.982-0.071,6.038,2.208c1.057,2.276,0.071,4.979-2.208,6.038l-25.719,11.952
				C242.44,113.737,241.789,113.873,241.147,113.873z"/>
		</g>
		<g>
			<path fill="#161616" d="M250.625,135.812c-0.518,0-1.045-0.089-1.56-0.275l-11.656-4.259c-2.359-0.861-3.573-3.472-2.711-5.831
				c0.864-2.359,3.475-3.567,5.831-2.711l11.656,4.259c2.359,0.861,3.573,3.472,2.711,5.831
				C254.221,134.67,252.48,135.812,250.625,135.812z"/>
		</g>
		<g>
			<path fill="#161616" d="M199.145,117.002c-0.518,0-1.045-0.089-1.56-0.275l-11.659-4.259c-2.359-0.861-3.573-3.472-2.711-5.831
				c0.864-2.359,3.469-3.564,5.831-2.711l11.659,4.259c2.359,0.861,3.573,3.472,2.711,5.831
				C202.742,115.859,201.001,117.002,199.145,117.002z"/>
		</g>
		<g>
			<path fill="#161616" d="M177.058,141.753c-1.714,0-3.357-0.974-4.126-2.631c-1.057-2.276-0.071-4.979,2.208-6.038l20.166-9.371
				c2.27-1.051,4.981-0.071,6.038,2.208c1.057,2.276,0.071,4.979-2.208,6.038l-20.166,9.371
				C178.352,141.617,177.701,141.753,177.058,141.753z"/>
		</g>
		<g>
			<path fill="#161616" d="M239.38,164.527c-1.714,0-3.357-0.974-4.126-2.631l-9.371-20.163c-1.057-2.276-0.071-4.979,2.208-6.038
				c2.27-1.051,4.979-0.071,6.038,2.208l9.371,20.163c1.057,2.276,0.071,4.979-2.208,6.038
				C240.673,164.39,240.022,164.527,239.38,164.527z"/>
		</g>
		<g>
			<path fill="#161616" d="M236.094,77.656c-0.518,0-1.045-0.089-1.56-0.275c-2.359-0.861-3.573-3.472-2.711-5.831l1.746-4.78
				c0.864-2.359,3.469-3.564,5.831-2.711c2.359,0.861,3.573,3.472,2.711,5.831l-1.746,4.78
				C239.691,76.513,237.95,77.656,236.094,77.656z"/>
		</g>
		<g>
			<path fill="#161616" d="M221.528,76.309c-0.719,1.962-2.889,2.968-4.851,2.252c-1.963-0.719-2.972-2.886-2.253-4.851
				c0.716-1.962,2.886-2.971,4.848-2.252C221.235,72.174,222.242,74.344,221.528,76.309z"/>
		</g>
		<g>
			<path fill="#161616" d="M252.267,87.542c-0.714,1.963-2.883,2.972-4.846,2.253c-1.962-0.716-2.972-2.886-2.255-4.848
				c0.719-1.966,2.886-2.969,4.851-2.256C251.98,83.41,252.987,85.579,252.267,87.542z"/>
		</g>
		<g>
			<path fill="#161616" d="M269.408,138.133c-0.719,1.962-2.889,2.969-4.851,2.249c-1.962-0.714-2.969-2.883-2.256-4.845
				c0.719-1.965,2.889-2.975,4.851-2.256C269.115,134.001,270.125,136.165,269.408,138.133z"/>
		</g>
		<g>
			<path fill="#161616" d="M225.37,162.289c-0.719,1.966-2.886,2.972-4.851,2.256c-1.962-0.719-2.969-2.889-2.253-4.851
				c0.716-1.962,2.886-2.969,4.848-2.25C225.077,158.157,226.087,160.327,225.37,162.289z"/>
		</g>
		<g>
			<path fill="#161616" d="M194.262,150.923c-0.719,1.963-2.883,2.972-4.851,2.256c-1.962-0.719-2.969-2.889-2.25-4.851
				c0.714-1.963,2.883-2.969,4.848-2.253C193.972,146.791,194.981,148.96,194.262,150.923z"/>
		</g>
		<g>
			<path fill="#161616" d="M150.512,230.829c-0.719,1.963-2.883,2.972-4.851,2.256c-1.963-0.719-2.969-2.889-2.25-4.851
				c0.713-1.962,2.883-2.969,4.848-2.253C150.222,226.697,151.232,228.867,150.512,230.829z"/>
		</g>
		<g>
			<path fill="#161616" d="M205.938,256.465c-0.722,1.963-2.883,2.972-4.854,2.256c-1.96-0.719-2.966-2.889-2.25-4.851
				c0.716-1.963,2.883-2.969,4.848-2.253C205.648,252.333,206.655,254.503,205.938,256.465z"/>
		</g>
		<g>
			<path fill="#161616" d="M137.289,260.248c-0.722,1.962-2.883,2.971-4.854,2.255c-1.959-0.719-2.966-2.889-2.249-4.851
				c0.716-1.962,2.883-2.969,4.848-2.252C136.999,256.116,138.005,258.285,137.289,260.248z"/>
		</g>
		<g>
			<path fill="#161616" d="M177.257,104.458c-0.719,1.962-2.886,2.972-4.851,2.255c-1.962-0.719-2.969-2.889-2.252-4.851
				c0.716-1.962,2.886-2.969,4.848-2.252C176.967,100.326,177.976,102.495,177.257,104.458z"/>
		</g>
		<g>
			<path fill="#161616" d="M212.903,66.029c-1.755,0-3.428-1.021-4.171-2.732l-3.721-8.551c-1.003-2.303,0.05-4.982,2.353-5.982
				c2.315-1.006,4.984,0.053,5.982,2.353l3.721,8.551c1.003,2.303-0.05,4.982-2.353,5.982
				C214.123,65.908,213.507,66.029,212.903,66.029z"/>
		</g>
		<g>
			<path fill="#161616" d="M261.384,83.747c-1.672,0-3.283-0.926-4.076-2.528c-1.116-2.249-0.195-4.979,2.054-6.091l8.359-4.141
				c2.25-1.119,4.976-0.195,6.091,2.054c1.116,2.25,0.195,4.979-2.054,6.092l-8.359,4.141
				C262.751,83.596,262.062,83.747,261.384,83.747z"/>
		</g>
		<g>
			<path fill="#161616" d="M173.705,73.435c-1.154,0-2.309-0.438-3.194-1.311l-12.165-12.017c-0.101-0.098-0.195-0.201-0.284-0.305
				c-1.735-2.06-2.691-4.68-2.691-7.376c0-6.311,5.13-11.443,11.437-11.443c2.587,0,4.979,0.855,6.897,2.309
				c1.921-1.453,4.31-2.309,6.897-2.309c6.308,0,11.437,5.133,11.437,11.443c0,2.705-0.962,5.328-2.705,7.382
				c-0.086,0.101-0.175,0.198-0.269,0.29l-12.162,12.023C176.017,72.997,174.859,73.435,173.705,73.435z M164.92,53.822l8.785,8.676
				l8.782-8.679c0.228-0.308,0.459-0.77,0.459-1.394c0-1.297-1.051-2.35-2.344-2.35c-1.255,0-2.282,0.986-2.344,2.244
				c-0.071,1.489-0.867,2.847-2.128,3.638c-1.187,0.743-2.649,0.9-3.957,0.423c-1.693-0.604-2.936-2.179-3.025-4.073
				c-0.059-1.252-1.086-2.232-2.338-2.232c-1.294,0-2.344,1.054-2.344,2.35C164.464,53.047,164.695,53.515,164.92,53.822z
				 M185.867,56.871h0.03H185.867z"/>
		</g>
		<g>
			<path fill="#161616" d="M169.922,275.784c-1.154,0-2.309-0.438-3.194-1.311l-12.165-12.017c-0.101-0.098-0.195-0.201-0.284-0.305
				c-1.735-2.06-2.691-4.68-2.691-7.376c0-6.311,5.13-11.443,11.437-11.443c2.587,0,4.979,0.855,6.897,2.309
				c1.921-1.453,4.31-2.309,6.897-2.309c6.308,0,11.437,5.132,11.437,11.443c0,2.705-0.962,5.328-2.705,7.382
				c-0.086,0.101-0.175,0.198-0.269,0.29l-12.162,12.023C172.234,275.346,171.076,275.784,169.922,275.784z M161.137,256.172
				l8.785,8.676l8.782-8.678c0.228-0.308,0.459-0.77,0.459-1.394c0-1.297-1.051-2.35-2.344-2.35c-1.255,0-2.282,0.986-2.344,2.244
				c-0.071,1.489-0.867,2.848-2.128,3.638c-1.187,0.746-2.649,0.897-3.957,0.423c-1.693-0.604-2.936-2.179-3.025-4.073
				c-0.059-1.252-1.086-2.232-2.338-2.232c-1.293,0-2.344,1.054-2.344,2.35C160.681,255.396,160.912,255.864,161.137,256.172z
				 M182.084,259.221h0.03H182.084z"/>
		</g>
		<g>
			<path fill="#161616" d="M51.029,246.41c-0.423,0-0.854-0.059-1.282-0.184l-16.408-4.813c-0.135-0.039-0.268-0.086-0.398-0.136
				c-2.506-0.998-4.586-2.85-5.862-5.221c-1.447-2.691-1.761-5.784-0.885-8.708c0.878-2.93,2.843-5.34,5.535-6.787
				c2.276-1.222,4.788-1.61,7.165-1.234c1.003-2.19,2.702-4.076,4.98-5.304c2.689-1.444,5.785-1.758,8.711-0.882
				c2.926,0.882,5.334,2.847,6.783,5.538c0,0,0,0,0.002,0.003c1.245,2.312,1.653,4.987,1.162,7.554
				c-0.034,0.207-0.081,0.414-0.144,0.616l-5.013,16.345C54.775,245.152,52.977,246.41,51.029,246.41z M36.154,232.762l11.844,3.475
				l3.614-11.783c0.061-0.373,0.052-0.9-0.252-1.465c-0.299-0.553-0.793-0.959-1.394-1.139c-0.602-0.175-1.234-0.115-1.782,0.18
				c-1.105,0.595-1.545,1.951-1.002,3.087c0.627,1.311,0.59,2.848-0.102,4.126c-0.681,1.258-1.914,2.122-3.327,2.332
				c-1.791,0.278-3.635-0.545-4.6-2.149c-0.647-1.075-2.011-1.456-3.117-0.855c-0.552,0.296-0.953,0.787-1.134,1.388
				c-0.179,0.601-0.114,1.237,0.184,1.791C35.382,232.297,35.806,232.599,36.154,232.762z"/>
		</g>
		<g>
			<path fill="#161616" d="M241.218,207.383c-0.423,0-0.852-0.059-1.276-0.184l-16.413-4.792c-0.136-0.038-0.266-0.083-0.397-0.133
				c-2.507-0.992-4.591-2.842-5.872-5.21c-1.45-2.688-1.77-5.781-0.9-8.708c0.873-2.93,2.836-5.343,5.526-6.796
				c2.276-1.231,4.789-1.607,7.163-1.249c1-2.187,2.696-4.079,4.976-5.307c2.685-1.45,5.781-1.77,8.699-0.897
				c2.93,0.873,5.343,2.839,6.796,5.526l0,0c1.252,2.315,1.666,4.988,1.175,7.56c-0.033,0.207-0.08,0.414-0.142,0.616l-4.99,16.354
				C244.965,206.122,243.165,207.383,241.218,207.383z M226.329,193.756l11.849,3.457l3.596-11.789
				c0.062-0.373,0.053-0.9-0.252-1.462c0-0.003,0-0.003-0.003-0.003c-0.296-0.553-0.793-0.956-1.394-1.137
				c-0.349-0.104-1.045-0.216-1.779,0.184c-1.107,0.598-1.545,1.951-1.001,3.087c0.633,1.317,0.595,2.859-0.104,4.144
				c-0.69,1.267-1.939,2.128-3.362,2.327c-1.779,0.269-3.599-0.56-4.558-2.149c-0.645-1.071-2.016-1.444-3.114-0.855
				c-0.551,0.299-0.953,0.793-1.131,1.394c-0.18,0.601-0.115,1.237,0.184,1.791C225.557,193.291,225.983,193.59,226.329,193.756z"/>
		</g>
		<g>
			<path fill="#161616" d="M243.293,59.707c-1.891,0-3.656-1.187-4.301-3.072l-5.544-16.179c-0.044-0.133-0.086-0.266-0.118-0.403
				c-0.633-2.614-0.323-5.381,0.873-7.793c1.361-2.741,3.706-4.786,6.604-5.76c2.895-0.974,5.997-0.761,8.738,0.598
				c2.318,1.154,4.076,2.986,5.15,5.141c2.359-0.447,4.881-0.148,7.199,1.003c5.647,2.812,7.956,9.691,5.147,15.338v0.003
				c-1.205,2.415-3.229,4.333-5.704,5.399c-0.124,0.053-0.249,0.104-0.376,0.145l-16.244,5.352
				C244.243,59.633,243.763,59.707,243.293,59.707z M242.135,37.759l4.002,11.677l11.73-3.863c0.34-0.172,0.755-0.485,1.033-1.042
				c0.577-1.16,0.101-2.572-1.06-3.149c-1.113-0.559-2.481-0.133-3.096,0.971c-0.761,1.362-2.164,2.238-3.718,2.324
				c-1.551,0.056-3.049-0.63-3.952-1.897c-0.932-1.305-1.122-3.025-0.477-4.49c0.503-1.152,0.018-2.489-1.104-3.049
				c-0.559-0.278-1.196-0.32-1.791-0.121c-0.595,0.201-1.077,0.622-1.356,1.184C242.07,36.862,242.07,37.38,242.135,37.759z
				 M262.97,46.556H263H262.97z"/>
		</g>
	</g>
</g>
</svg>
