<svg xmlns="http://www.w3.org/2000/svg" viewBox="0 0 24 24"><path d="M22.815,5.4,21.594,4.354a3.6,3.6,0,0,0-7.189.259V10.8H1.521a.515.515,0,0,0-.515.516A10.308,10.308,0,0,0,9.652,21.474v1a.516.516,0,0,0,1.031,0v-.891a8.014,8.014,0,0,0,1.861-.049v.94a.516.516,0,0,0,1.031,0V21.362A10.319,10.319,0,0,0,21.62,11.313V7.1l1.172-.9a.514.514,0,0,0,.2-.395A.522.522,0,0,0,22.815,5.4ZM2.05,11.828H14.359A4.437,4.437,0,0,1,11.6,15.47a13.39,13.39,0,0,1-3.753.644c-1.525.113-2.981.222-3.693,1.08A9.257,9.257,0,0,1,2.05,11.828ZM20.589,6.846v4.467a9.268,9.268,0,0,1-9.906,9.245V19.73a.516.516,0,0,0-1.031,0v.7a9.249,9.249,0,0,1-4.777-2.453c.35-.6,1.42-.718,3.048-.838a14.181,14.181,0,0,0,4.047-.711,5.628,5.628,0,0,0,3.466-5.119v-6.7a2.577,2.577,0,1,1,5.153,0Z"/><path d="M18.607,3.625a.859.859,0,1,0,.858.859A.859.859,0,0,0,18.607,3.625Z"/></svg>