<?xml version="1.0" encoding="utf-8"?>
<!-- Generator: Adobe Illustrator 16.0.0, SVG Export Plug-In . SVG Version: 6.00 Build 0)  -->
<!DOCTYPE svg PUBLIC "-//W3C//DTD SVG 1.1//EN" "http://www.w3.org/Graphics/SVG/1.1/DTD/svg11.dtd">
<svg version="1.1" id="Layer_1" xmlns="http://www.w3.org/2000/svg" xmlns:xlink="http://www.w3.org/1999/xlink" x="0px" y="0px"
	 width="64px" height="64px" viewBox="0 0 64 64" enable-background="new 0 0 64 64" xml:space="preserve">
<path fill-rule="evenodd" clip-rule="evenodd" fill="#231F20" d="M58.737,34.695l-12.26,12.267
	c-0.002,0.002-0.004,0.004-0.006,0.006L34.471,58.976c-1.363,1.366-3.576,1.366-4.942,0l-12-12.008
	c-0.002-0.002-0.004-0.006-0.006-0.008L5.264,34.695c-7.019-7.023-7.019-18.408,0-25.43c7.017-7.021,18.395-7.021,25.412,0
	l1.325,1.325l1.323-1.325c7.016-7.021,18.394-7.021,25.413,0C65.754,16.287,65.754,27.672,58.737,34.695L58.737,34.695z
	 M57.324,10.724c-6.234-6.259-16.342-6.259-22.575,0l-1.322,1.328c-0.778,0.783-2.042,0.783-2.823,0l-1.322-1.328
	c-6.234-6.259-16.341-6.259-22.575,0c-6.234,6.261-6.234,16.41,0,22.671l12.61,12.663l11.288,11.336
	c0.781,0.783,2.044,0.783,2.823,0l11.287-11.336l12.61-12.663C63.558,27.134,63.558,16.985,57.324,10.724L57.324,10.724z
	 M17.123,14.074c-4.39,0.497-7.546,4.453-7.052,8.842l0,0v0.002c0.062,0.548-0.332,1.042-0.882,1.104
	c-0.547,0.062-1.042-0.332-1.104-0.881c-0.62-5.484,3.327-10.434,8.813-11.052c0.548-0.062,1.044,0.334,1.106,0.881
	C18.066,13.519,17.671,14.013,17.123,14.074L17.123,14.074z"/>
</svg>
