<svg xmlns="http://www.w3.org/2000/svg" viewBox="0 0 24 24"><path d="M22.425,21.072l-3.758.394-.694-6.628a4.764,4.764,0,0,0,3.776-5.181l-.532-5.083a.515.515,0,0,0-.188-.347.524.524,0,0,0-.378-.112l-8.543.894A.5.5,0,0,0,12,5.043a.5.5,0,0,0-.108-.034L3.349,4.115a.531.531,0,0,0-.378.112.515.515,0,0,0-.188.347L2.251,9.657a4.764,4.764,0,0,0,3.776,5.181l-.694,6.628-3.758-.394a.526.526,0,0,0-.567.459.515.515,0,0,0,.459.566l8.543.895.054,0a.515.515,0,0,0,.053-1.028l-3.758-.393.691-6.6a4.811,4.811,0,0,0,4.769-4.31L12,8.93l.181,1.728a4.811,4.811,0,0,0,4.769,4.31l.691,6.605-3.758.393a.515.515,0,0,0,.053,1.028l.054,0,8.543-.895a.515.515,0,0,0,.459-.566A.524.524,0,0,0,22.425,21.072ZM10.794,10.551a3.78,3.78,0,0,1-7.518-.787l.193-1.836,7.517.787Zm.3-2.862L3.576,6.9l.179-1.708,7.517.787Zm1.635-1.708,7.517-.787L20.424,6.9l-7.517.787Zm4.63,7.935a3.783,3.783,0,0,1-4.152-3.365l-.192-1.836,7.517-.787.193,1.836a3.779,3.779,0,0,1-3.366,4.152Z"/><path d="M12,3.99a.514.514,0,0,0,.515-.515V1.521a.515.515,0,0,0-1.03,0V3.475A.514.514,0,0,0,12,3.99Z"/><path d="M9.773,4.121a.515.515,0,0,0,.729-.728L9.12,2.011a.515.515,0,1,0-.729.729Z"/><path d="M14.227,4.121,15.609,2.74a.515.515,0,0,0-.729-.729L13.5,3.393a.515.515,0,0,0,.729.728Z"/></svg>